<?xml version="1.0" encoding="utf-8"?>
<!-- Generator: Adobe Illustrator 25.3.1, SVG Export Plug-In . SVG Version: 6.00 Build 0)  -->
<svg version="1.1" id="Calque_1" xmlns="http://www.w3.org/2000/svg" xmlns:xlink="http://www.w3.org/1999/xlink" x="0px" y="0px"
	 viewBox="0 0 448 512" style="enable-background:new 0 0 448 512;" xml:space="preserve">
<style type="text/css">
	.st0{fill:#FFFFFF;}
</style>
<g>
	<path class="st0" d="M436.8,451.9c-24.4-13.9-49.2-27.2-75.6-41.6c13.9,12.8,26.8,24.7,39.6,36.5c-0.6,0.6-1.2,1.2-1.8,1.8
		c-4.8-3.2-9.8-6.2-14.5-9.6c-23.6-16.8-45.2-35.3-61.7-58.6c-4.3-6.1-4.7-10.8,0-17.4c5.6-7.7,10.2-16.4,13-25.3
		c5.5-18-15.5-37.4-35-32.3c-9.6,2.5-18.7,7.3-27.6,11.8c-4.6,2.3-7.6,3-11.2-0.3c-0.4-0.4-1.1-1.1-2.2-2.2
		c-6.4-6.8-13.1-13.4-20-19.9c-12.1-12.1-26.4-26.4-35.6-36C157.6,210,113.7,159.9,75,106c27.6,56.2,66.1,105.9,107,154
		c0,0,0,0.1,0,0.1s0.4,0.5,1.1,1.2c2.4,2.8,4.8,5.6,7.2,8.4c0,0,0.1,0,0.1,0c5,5.9,10.8,13.1,12.5,16.7c-1.6-1.3-3.2-2.7-4.8-4
		c-2.6-2.4-5.8-5.5-9.2-8.9c0,0,0,0,0,0C108.7,193.1,42.3,105.2,6,0C3.9,23.4,3.8,46.9,0.7,70c-3.2,23.9,4,44.4,16.9,64.4
		c24.9,38.6,55.4,73.2,87.1,107c10.4,11.1,21.1,22.1,31.8,33c0.1,0.1,5.1,5.2,12.6,12.8c3.7,3.8,7.4,7.5,11,11.3c0,0,0-0.1,0-0.1
		c17.9,17.9,41.5,41.1,55.1,52.3c0.2,0.2,0.4,0.3,0.6,0.5c1.4,1.3,2.8,2.6,4.2,3.8c3.9,3.4,4.7,6.1,1.4,10.5
		c-3.7,5.1-6.8,10.7-9.2,16.4c-3.3,8.2-7.5,17.3,0.6,24.9c8.1,7.6,18.3,4.7,26.8,0.8c12.1-5.6,24.1-12.1,34.7-19.8
		c10.5-7.6,19.2-17.2,28.7-26c-19.3,26.4-43.9,46.7-77.7,56.9c3.7,2,7.7,4.3,11.1,3.7c8-1.3,16.5-2.8,23.6-6.3
		c10.8-5.3,20.6-11.7,28.9,3.1c4.6-4.2,8.2-7.6,12.2-11.2c2.5,7.6-7.7,14.8,0.3,21.7c6,5.2,12.3,10.2,18.9,15.7
		c4-6.2,7.6-12,11.3-17.7c0.9-0.2,1.7-0.4,2.6-0.5c-5,19.8-2.2,36.3,21.1,44.2c3.3-6.7,6.7-13.6,10.2-20.5
		c3.2,6.9,5.3,13.2,5.4,19.5c0.1,15.5,10.4,22.8,24.8,28.4c2.1-8.1,4.2-16.2,6.3-24.2c4.1,8.3,5.9,16.5,7.7,24.7
		c2.4,10.8,8.1,15,19.3,11.4c6.6-2.1,15.6-7.2,16.9-12.4c2.9-11,2.4-23,1.2-34.4C446.7,459.6,441.4,454.5,436.8,451.9z M273.3,356.7
		c-9.6,10.1-19.7,20.5-36.6,18.8c20.7-9.6,36.4-23.4,45.9-43.2C287.5,343,279.6,350.1,273.3,356.7z"/>
</g>
</svg>
