<?xml version="1.0"?>
<svg xmlns="http://www.w3.org/2000/svg" xmlnsXlink="http://www.w3.org/1999/xlink" xmlnssvgjs="http://svgjs.com/svgjs" version="1.1" width="512" height="512" x="0" y="0" viewBox="0 0 511.944 511.944" style="enable-background:new 0 0 512 512" xml:space="preserve" class=""><g><g xmlns="http://www.w3.org/2000/svg"><path d="m485.932 72.95 21.675-21.675-21.213-21.213-22.548 22.548c-22.421-13.273-52.687-10.953-72.911 9.272l-53.787 53.787h-337.148v330h190.787l36.213 36.213 36.213-36.213h188.787v-190.295l25.606-25.606c42.817-42.817 45.592-110.746 8.326-156.818zm-73.784 10.145c11.723-11.724 30.7-11.725 42.425 0 11.723 11.724 11.725 30.701 0 42.427-99.678 99.623-96.543 96.67-106.149 105.983l-42.26-42.26c9.299-9.591 6.278-6.388 105.984-106.15zm-126.53 128.029 40.928 40.928c-25 22.726-49.656 42.566-71.655 57.548-30.441 20.732-47.22 26.282-53.838 27.016.735-6.619 6.286-23.398 27.017-53.837 14.982-21.999 34.822-46.655 57.548-71.655zm-34.831 204.545-23.787 23.787-23.787-23.787h-173.213v-270h277.148l-11.673 11.673c-40.389 40.388-75.074 81.861-97.667 116.777-12.031 18.593-30.172 49.365-26.219 70.749l-24.606 24.606 21.213 21.213 24.61-24.61c21.376 3.949 51.893-14.018 70.745-26.216 34.917-22.593 76.389-57.279 116.777-97.667l41.672-41.672v42.427l-11.672 11.672c-22.179 22.179-34.394 51.667-34.394 83.033h30c0-18.356 5.641-35.836 16.066-50.501v128.516zm201.213-202.721v-42.426c22.68-22.946 25.154-24.499 29.709-30.668.176 2.279.291 4.571.291 6.881 0 23.352-9.094 45.307-25.606 61.82z" fill="#ffffff" data-original="#000000" style=""/><path d="m62 175.669h150v30h-150z" fill="#ffffff" data-original="#000000" style=""/><path d="m62 235.669h120v30h-120z" fill="#ffffff" data-original="#000000" style=""/><path d="m62 295.669h90v30h-90z" fill="#ffffff" data-original="#000000" style=""/><path d="m62 355.669h60v30h-60z" fill="#ffffff" data-original="#000000" style=""/></g></g></svg>
