<svg xmlns="http://www.w3.org/2000/svg" height="512" viewBox="0 0 512 512" width="512"><path d="m496 240h-202.7c-8.8 0-16-7.2-16-16 0-8.8 7.2-16 16-16h202.7c8.8 0 16 7.2 16 16 0 8.8-7.2 16-16 16zm0 0"/><path d="m416 320c-4.1 0-8.2-1.6-11.3-4.7-6.2-6.3-6.2-16.4 0-22.6l68.7-68.7-68.7-68.7c-6.2-6.2-6.2-16.4 0-22.6 6.3-6.3 16.4-6.3 22.6 0l80 80c6.3 6.3 6.3 16.4 0 22.6l-80 80c-3.1 3.2-7.2 4.7-11.3 4.7zm0 0"/><path d="m170.7 512c-4.6 0-8.9-0.6-13.2-2l-128.4-42.8c-17.5-6.1-29.1-22.4-29.1-40.6v-384c0-23.5 19.1-42.7 42.7-42.7 4.6 0 8.9 13.2 2l128.4 42.8c17.5 6.1 29.1 22.4 29.1 40.6v384c0 23.5-19.1 42.7-42.7 42.7zm-128-480c-5.9 0-10.7 4.8-10.7 10.7v384c0 4.5 3.1 8.8 7.4 10.3l127.8 42.6c0.9 2.1 3.5 5.9 0 10.7-4.8 10.7-10.7v-384c0-4.5-3.1-8.8-7.4-10.3l-127.8-42.6c-0.9-0.3-2.1-0.5-3.5-0.5zm0 0"/><path d="m325.3 170.7c-8.8 0-16-7.2-16-16v-96c0-14.7-12-26.7-26.7-26.7h-240c-8.8 0-16-7.2-16-16 0-8.8 7.2-16 16-16h240c32.4 0 58.7 26.3 58.7 58.7v96c0 8.8-7.2 16-16 16zm0 0"/><path d="m282.7 448h-85.3c-8.8 0-16-7.2-16-16 0-8.8 7.2-16 16-16h85.3c14.7 0 26.7-12 26.7-26.7v-96c0-8.8 7.2-16 16-16s16 7.2 16 16v96c0 32.4-26.3 58.7-58.7 58.7zm0 0"/></svg>
