<?xml version="1.0"?>
<svg xmlns="http://www.w3.org/2000/svg" xmlnsXlink="http://www.w3.org/1999/xlink" xmlnsSvgjs="http://svgjs.com/svgjs" version="1.1" width="512" height="512" x="0" y="0" viewBox="0 0 24 24" style="enable-background:new 0 0 512 512" xml:space="preserve" class=""><g><g xmlns="http://www.w3.org/2000/svg"><g><path d="m15.5 19c-.276 0-.5-.224-.5-.5v-5.5h-.5c-.276 0-.5-.224-.5-.5s.224-.5.5-.5h1c.276 0 .5.224.5.5v6c0 .276-.224.5-.5.5z" fill="#ffffff" data-original="#000000" style="" class=""/></g></g><g xmlns="http://www.w3.org/2000/svg"><g><g><path d="m10 18.521c-.276 0-.5-.224-.5-.5v-5c0-.276.224-.5.5-.5s.5.224.5.5v5c0 .276-.224.5-.5.5z" fill="#ffffff" data-original="#000000" style="" class=""/></g></g><g><g><path d="m12.5 16.021h-5c-.276 0-.5-.224-.5-.5s.224-.5.5-.5h5c.276 0 .5.224.5.5s-.224.5-.5.5z" fill="#ffffff" data-original="#000000" style="" class=""/></g></g></g><g xmlns="http://www.w3.org/2000/svg"><g><path d="m21.5 24h-19c-1.379 0-2.5-1.122-2.5-2.5v-17c0-1.378 1.121-2.5 2.5-2.5h19c1.379 0 2.5 1.122 2.5 2.5v17c0 1.378-1.121 2.5-2.5 2.5zm-19-21c-.827 0-1.5.673-1.5 1.5v17c0 .827.673 1.5 1.5 1.5h19c.827 0 1.5-.673 1.5-1.5v-17c0-.827-.673-1.5-1.5-1.5z" fill="#ffffff" data-original="#000000" style="" class=""/></g></g><g xmlns="http://www.w3.org/2000/svg"><g><path d="m23.5 8h-23c-.276 0-.5-.224-.5-.5s.224-.5.5-.5h23c.276 0 .5.224.5.5s-.224.5-.5.5z" fill="#ffffff" data-original="#000000" style="" class=""/></g></g><g xmlns="http://www.w3.org/2000/svg"><g><path d="m5.5 5c-.276 0-.5-.224-.5-.5v-4c0-.276.224-.5.5-.5s.5.224.5.5v4c0 .276-.224.5-.5.5z" fill="#ffffff" data-original="#000000" style="" class=""/></g></g><g xmlns="http://www.w3.org/2000/svg"><g><path d="m18.5 5c-.276 0-.5-.224-.5-.5v-4c0-.276.224-.5.5-.5s.5.224.5.5v4c0 .276-.224.5-.5.5z" fill="#ffffff" data-original="#000000" style="" class=""/></g></g></g></svg>
