<?xml version="1.0" encoding="utf-8"?>
<!-- Generator: Adobe Illustrator 25.3.0, SVG Export Plug-In . SVG Version: 6.00 Build 0)  -->
<svg version="1.1" id="Calque_1" focusable="false" xmlns="http://www.w3.org/2000/svg" xmlns:xlink="http://www.w3.org/1999/xlink"
	 x="0px" y="0px" viewBox="0 0 512 512" style="enable-background:new 0 0 512 512;" xml:space="preserve">
<style type="text/css">
	.st0{fill:#FFFFFF;}
</style>
<path class="st0" d="M300,208h104c6.6,0,12-5.4,12-12v-24c0-6.6-5.4-12-12-12H300c-6.6,0-12,5.4-12,12v24
	C288,202.6,293.4,208,300,208z"/>
<path class="st0" d="M300,280h104c6.6,0,12-5.4,12-12v-24c0-6.6-5.4-12-12-12H300c-6.6,0-12,5.4-12,12v24
	C288,274.6,293.4,280,300,280z"/>
<path class="st0" d="M300,352h104c6.6,0,12-5.4,12-12v-24c0-6.6-5.4-12-12-12H300c-6.6,0-12,5.4-12,12v24
	C288,346.6,293.4,352,300,352z"/>
<path class="st0" d="M108,280h136c6.6,0,12-5.4,12-12v-96c0-6.6-5.4-12-12-12H108c-6.6,0-12,5.4-12,12v96
	C96,274.6,101.4,280,108,280z M136,200h80v40h-80V200z"/>
<path class="st0" d="M108,352h136c6.6,0,12-5.4,12-12v-24c0-6.6-5.4-12-12-12H108c-6.6,0-12,5.4-12,12v24
	C96,346.6,101.4,352,108,352z"/>
<path class="st0" d="M488,64h-24H48H24C10.7,64,0,74.7,0,88v336c0,13.3,10.7,24,24,24h1h462h1c13.3,0,24-10.7,24-24V88
	C512,74.7,501.3,64,488,64z M48,400v-8V112h416v280v8H48z"/>
</svg>
